<svg xmlns="http://www.w3.org/2000/svg" viewBox="0 0 64 64" role="img" aria-hidden="true">
  <circle cx="32" cy="32" r="30" fill="#25D366"/>
  <path fill="#fff" d="M32 14c-9.9 0-18 7.7-18 17.3 0 3.1.9 6.1 2.6 8.7L14 50l10.5-2.7a18.7 18.7 0 0 0 7.5 1.5c9.9 0 18-7.7 18-17.3S41.9 14 32 14Zm0 31.6c-2.4 0-4.7-.6-6.8-1.8l-.9-.5-6.2 1.6 1.7-5.8-.6-.9a13.8 13.8 0 0 1-2.1-7.2C17.1 23.5 23.8 17 32 17s14.9 6.5 14.9 14.6S40.2 45.6 32 45.6Z"/>
  <path fill="#fff" d="M25.9 23.1c-.5 0-1 .2-1.3.7l-1.5 2.2c-.3.4-.4 1-.2 1.5 1.6 5.5 5.8 10.1 11.2 12 .5.2 1.1.1 1.5-.2l2.5-1.7c.4-.3.6-.8.6-1.2v-2c0-.7-.5-1.3-1.2-1.5l-3.2-.8c-.5-.1-1 .1-1.4.4l-1.1.9c-2.3-1.3-4.1-3.2-5.4-5.4l.9-1.1c.3-.4.5-.9.4-1.4l-.8-3.2c-.2-.7-.8-1.2-1.5-1.2h-.5Z"/>
</svg>
